<?xml version="1.0" encoding="UTF-8" standalone="no"?>
<!-- Created with Inkscape (http://www.inkscape.org/) -->

<svg
   width="32"
   height="32"
   viewBox="0 0 32 32"
   version="1.1"
   id="svg1"
   inkscape:export-filename="C:\Users\blade\monoyoshi\artificialblade\public\hamburger\noburger.svg"
   inkscape:export-xdpi="96"
   inkscape:export-ydpi="96"
   inkscape:version="1.4 (86a8ad7, 2024-10-11)"
   sodipodi:docname="noburger.svg"
   xmlns:inkscape="http://www.inkscape.org/namespaces/inkscape"
   xmlns:sodipodi="http://sodipodi.sourceforge.net/DTD/sodipodi-0.dtd"
   xmlns="http://www.w3.org/2000/svg"
   xmlns:svg="http://www.w3.org/2000/svg">
  <sodipodi:namedview
     id="namedview1"
     pagecolor="#ffffff"
     bordercolor="#000000"
     borderopacity="0.25"
     inkscape:showpageshadow="2"
     inkscape:pageopacity="0.0"
     inkscape:pagecheckerboard="0"
     inkscape:deskcolor="#d1d1d1"
     inkscape:document-units="px"
     inkscape:zoom="11.313709"
     inkscape:cx="-12.683728"
     inkscape:cy="18.163805"
     inkscape:window-width="1920"
     inkscape:window-height="1009"
     inkscape:window-x="-8"
     inkscape:window-y="-8"
     inkscape:window-maximized="1"
     inkscape:current-layer="layer1">
    <inkscape:page
       x="0"
       y="0"
       width="32"
       height="32"
       id="page2"
       margin="0"
       bleed="0" />
  </sodipodi:namedview>
  <defs
     id="defs1" />
  <g
     inkscape:label="Layer 1"
     inkscape:groupmode="layer"
     id="layer1">
    <path
       id="rect1-94-95-2-8-7"
       style="fill:#7e7e87;fill-opacity:1;stroke-width:4;stroke-linecap:square;paint-order:stroke fill markers"
       d="M 6,1 V 2 H 5 V 3 H 4 V 4 H 3 V 5 H 2 V 6 H 1 v 1 1 1 h 1 v 1 h 1 v 1 h 1 v 1 h 1 v 1 h 1 v 1 h 1 v 1 h 1 v 1 1 H 7 v 1 H 6 v 1 H 5 v 1 H 4 v 1 H 3 v 1 H 2 v 1 H 1 v 1 1 1 h 1 v 1 h 1 v 1 h 1 v 1 h 1 v 1 h 1 v 1 h 1 1 1 1 v -1 h 1 v -1 h 1 v -1 h 1 v -1 h 1 v -1 h 1 v -1 h 1 v -1 h 1 v 1 h 1 v 1 h 1 v 1 h 1 v 1 h 1 v 1 h 1 v 1 h 1 v 1 h 1 1 1 1 v -1 h 1 v -1 h 1 v -1 h 1 v -1 h 1 v -1 h 1 v -1 -1 -1 h -1 v -1 h -1 v -1 h -1 v -1 h -1 v -1 h -1 v -1 h -1 v -1 h -1 v -1 -1 h 1 v -1 h 1 v -1 h 1 v -1 h 1 v -1 h 1 v -1 h 1 V 9 h 1 V 8 7 6 H 31 V 5 H 30 V 4 H 29 V 3 H 28 V 2 H 27 V 1 H 26 25 24 23 V 2 H 22 V 3 H 21 V 4 H 20 V 5 H 19 V 6 H 18 V 7 H 17 V 8 H 16 V 7 H 15 V 6 H 14 V 5 H 13 V 4 H 12 V 3 H 11 V 2 H 10 V 1 H 9 8 7 Z m 1,3 h 1 1 v 1 h 1 v 1 h 1 v 1 h 1 v 1 h 1 v 1 h 1 v 1 h 1 v 1 h 1 v 1 h 1 v -1 h 1 v -1 h 1 V 9 h 1 V 8 h 1 V 7 h 1 V 6 h 1 V 5 h 1 V 4 h 1 1 v 1 h 1 v 1 h 1 v 1 h 1 v 1 h -1 v 1 h -1 v 1 h -1 v 1 h -1 v 1 h -1 v 1 h -1 v 1 h -1 v 1 h -1 v 1 1 h 1 v 1 h 1 v 1 h 1 v 1 h 1 v 1 h 1 v 1 h 1 v 1 h 1 v 1 h 1 v 1 h -1 v 1 h -1 v 1 h -1 v 1 h -1 -1 v -1 h -1 v -1 h -1 v -1 h -1 v -1 h -1 v -1 h -1 v -1 h -1 v -1 h -1 v -1 h -1 v 1 h -1 v 1 h -1 v 1 h -1 v 1 h -1 v 1 h -1 v 1 h -1 v 1 H 9 v 1 H 8 7 V 27 H 6 V 26 H 5 V 25 H 4 v -1 h 1 v -1 h 1 v -1 h 1 v -1 h 1 v -1 h 1 v -1 h 1 v -1 h 1 v -1 h 1 V 16 15 H 11 V 14 H 10 V 13 H 9 V 12 H 8 V 11 H 7 V 10 H 6 V 9 H 5 V 8 H 4 V 7 H 5 V 6 H 6 V 5 h 1 z" />
    <path
       style="opacity:1;fill:#f3f3fc;fill-opacity:1;stroke-width:4;stroke-linecap:square;paint-order:stroke fill markers"
       d="m 1,7 6,-5 8.5,8 8.5,-8 6,5 -8,9 8,9 -6,5 L 15.5,23 7,30 1,24.5 9,16 Z"
       id="path3" />
    <path
       id="rect1-94-95-2-8"
       style="fill:#000009;fill-opacity:1;stroke-width:4;stroke-linecap:square;paint-order:stroke fill markers"
       d="M 5,1 V 2 H 4 V 3 H 3 V 4 H 2 V 5 H 1 V 6 H 0 v 1 1 1 h 1 v 1 h 1 v 1 h 1 v 1 h 1 v 1 h 1 v 1 h 1 v 1 h 1 v 1 1 H 6 v 1 H 5 v 1 H 4 v 1 H 3 v 1 H 2 v 1 H 1 v 1 H 0 v 1 1 1 h 1 v 1 h 1 v 1 h 1 v 1 h 1 v 1 h 1 v 1 h 1 1 1 1 v -1 h 1 v -1 h 1 v -1 h 1 v -1 h 1 v -1 h 1 v -1 h 1 v -1 h 1 v 1 h 1 v 1 h 1 v 1 h 1 v 1 h 1 v 1 h 1 v 1 h 1 v 1 h 1 1 1 1 v -1 h 1 v -1 h 1 v -1 h 1 v -1 h 1 v -1 h 1 v -1 -1 -1 h -1 v -1 h -1 v -1 h -1 v -1 h -1 v -1 h -1 v -1 h -1 v -1 h -1 v -1 -1 h 1 v -1 h 1 v -1 h 1 v -1 h 1 v -1 h 1 v -1 h 1 V 9 h 1 V 8 7 6 H 30 V 5 H 29 V 4 H 28 V 3 H 27 V 2 H 26 V 1 H 25 24 23 22 V 2 H 21 V 3 H 20 V 4 H 19 V 5 H 18 V 6 H 17 V 7 H 16 V 8 H 15 V 7 H 14 V 6 H 13 V 5 H 12 V 4 H 11 V 3 H 10 V 2 H 9 V 1 H 8 7 6 Z m 1,3 h 1 1 v 1 h 1 v 1 h 1 v 1 h 1 v 1 h 1 v 1 h 1 v 1 h 1 v 1 h 1 v 1 h 1 v -1 h 1 v -1 h 1 V 9 h 1 V 8 h 1 V 7 h 1 V 6 h 1 V 5 h 1 V 4 h 1 1 v 1 h 1 v 1 h 1 v 1 h 1 v 1 h -1 v 1 h -1 v 1 h -1 v 1 h -1 v 1 h -1 v 1 h -1 v 1 h -1 v 1 h -1 v 1 1 h 1 v 1 h 1 v 1 h 1 v 1 h 1 v 1 h 1 v 1 h 1 v 1 h 1 v 1 h 1 v 1 h -1 v 1 h -1 v 1 h -1 v 1 h -1 -1 v -1 h -1 v -1 h -1 v -1 h -1 v -1 h -1 v -1 h -1 v -1 h -1 v -1 h -1 v -1 h -1 v 1 h -1 v 1 h -1 v 1 h -1 v 1 h -1 v 1 h -1 v 1 H 9 v 1 H 8 v 1 H 7 6 V 27 H 5 V 26 H 4 V 25 H 3 v -1 h 1 v -1 h 1 v -1 h 1 v -1 h 1 v -1 h 1 v -1 h 1 v -1 h 1 v -1 h 1 V 16 15 H 10 V 14 H 9 V 13 H 8 V 12 H 7 V 11 H 6 V 10 H 5 V 9 H 4 V 8 H 3 V 7 H 4 V 6 H 5 V 5 h 1 z" />
  </g>
</svg>
