<?xml version="1.0" encoding="UTF-8" standalone="no"?>
<!-- Created with Inkscape (http://www.inkscape.org/) -->

<svg
   width="32"
   height="32"
   viewBox="0 0 32 32"
   version="1.1"
   id="svg1"
   inkscape:export-filename="yesburger.svg"
   inkscape:export-xdpi="96"
   inkscape:export-ydpi="96"
   xmlns:inkscape="http://www.inkscape.org/namespaces/inkscape"
   xmlns:sodipodi="http://sodipodi.sourceforge.net/DTD/sodipodi-0.dtd"
   xmlns="http://www.w3.org/2000/svg"
   xmlns:svg="http://www.w3.org/2000/svg">
  <sodipodi:namedview
     id="namedview1"
     pagecolor="#ffffff"
     bordercolor="#000000"
     borderopacity="0.25"
     inkscape:showpageshadow="2"
     inkscape:pageopacity="0.0"
     inkscape:pagecheckerboard="0"
     inkscape:deskcolor="#d1d1d1"
     inkscape:document-units="px">
    <inkscape:page
       x="0"
       y="0"
       width="32"
       height="32"
       id="page2"
       margin="0"
       bleed="0" />
  </sodipodi:namedview>
  <defs
     id="defs1" />
  <g
     inkscape:label="Layer 1"
     inkscape:groupmode="layer"
     id="layer1">
    <path
       id="rect1-1"
       style="fill:#7e7e87;fill-opacity:1;stroke:none;stroke-width:4.00005;stroke-linecap:square;paint-order:stroke fill markers"
       d="M 3,1 V 2 H 2 V 3 H 1 v 7 h 1 v 2 H 1 v 7 h 1 v 2 H 1 v 7 h 1 v 1 h 1 v 1 h 27 v -1 h 1 v -1 h 1 v -7 h -1 v -2 h 1 v -7 h -1 v -2 h 1 V 3 H 31 V 2 H 30 V 1 Z"
       sodipodi:nodetypes="ccccccccccccccccccccccccccccccccccccc" />
    <path
       id="rect1"
       style="display:inline;fill:#000009;fill-opacity:1;stroke:none;stroke-width:4.00005;stroke-linecap:square;paint-order:stroke fill markers"
       d="M 2,1 V 2 H 1 V 3 H 0 v 7 h 1 v 2 H 0 v 7 h 1 v 2 H 0 v 7 h 1 v 1 h 1 v 1 h 27 v -1 h 1 v -1 h 1 v -7 h -1 v -2 h 1 v -7 h -1 v -2 h 1 V 3 H 30 V 2 H 29 V 1 Z"
       sodipodi:nodetypes="ccccccccccccccccccccccccccccccccccccc" />
    <path
       id="rect1-5"
       style="display:inline;fill:#f3f3fc;fill-opacity:1;stroke:none;stroke-width:4.00003;stroke-linecap:square;paint-order:stroke fill markers"
       d="M 4,4 V 5 H 3 V 8 H 4 V 9 H 27 V 8 h 1 V 5 H 27 V 4 Z" />
    <path
       id="rect1-5-9"
       style="display:inline;fill:#f3f3fc;fill-opacity:1;stroke:none;stroke-width:4.00003;stroke-linecap:square;paint-order:stroke fill markers"
       d="m 4,13 v 1 H 3 v 3 h 1 v 1 h 23 v -1 h 1 v -3 h -1 v -1 z" />
    <path
       id="rect1-5-0"
       style="display:inline;fill:#f3f3fc;fill-opacity:1;stroke:none;stroke-width:4.00003;stroke-linecap:square;paint-order:stroke fill markers"
       d="m 4,22 v 1 H 3 v 3 h 1 v 1 h 23 v -1 h 1 v -3 h -1 v -1 z" />
  </g>
</svg>
