<?xml version="1.0" encoding="UTF-8" standalone="no"?>
<!-- Created with Inkscape (http://www.inkscape.org/) -->

<svg
   width="32"
   height="32"
   viewBox="0 0 32 32"
   version="1.1"
   id="svg1"
   sodipodi:docname="character.svg"
   inkscape:version="1.4 (86a8ad7, 2024-10-11)"
   xmlns:inkscape="http://www.inkscape.org/namespaces/inkscape"
   xmlns:sodipodi="http://sodipodi.sourceforge.net/DTD/sodipodi-0.dtd"
   xmlns="http://www.w3.org/2000/svg"
   xmlns:svg="http://www.w3.org/2000/svg">
  <sodipodi:namedview
     id="namedview1"
     pagecolor="#ffffff"
     bordercolor="#000000"
     borderopacity="0.25"
     inkscape:showpageshadow="2"
     inkscape:pageopacity="0.0"
     inkscape:pagecheckerboard="false"
     inkscape:deskcolor="#d1d1d1"
     inkscape:document-units="px"
     inkscape:zoom="5.6568543"
     inkscape:cx="-18.296388"
     inkscape:cy="21.301592"
     inkscape:window-width="1920"
     inkscape:window-height="1009"
     inkscape:window-x="-8"
     inkscape:window-y="-8"
     inkscape:window-maximized="1"
     inkscape:current-layer="layer1" />
  <defs
     id="defs1" />
  <g
     inkscape:label="Layer 1"
     inkscape:groupmode="layer"
     id="layer1">
    <path
       id="rect1-37-0-0"
       style="fill:#7e7e87;fill-opacity:1;stroke-width:4;stroke-linecap:square;paint-order:stroke fill markers"
       d="M 13,0 V 1 H 12 11 V 2 H 10 V 3 H 9 V 4 H 8 V 5 6 H 7 v 1 1 1 1 1 1 1 1 h 1 v 1 1 h 1 v 1 H 8 v 1 H 7 v 1 H 6 v 1 1 H 5 v 1 1 1 H 4 v 1 1 1 1 1 1 h 1 v 1 h 2 v 1 h 20 v -1 h 2 v -1 h 1 v -1 -1 -1 -1 -1 -1 h -1 v -1 -1 -1 h -1 v -1 -1 h -1 v -1 h -1 v -1 h -1 v -1 h 1 v -1 -1 h 1 V 13 12 11 10 9 8 7 6 H 26 V 5 4 H 25 V 3 H 24 V 2 H 23 V 1 H 22 21 V 0 h -1 -1 -1 -1 -1 -1 -1 z m 1,3 h 1 1 1 1 1 1 v 1 h 1 1 v 1 h 1 v 1 1 h 1 v 1 1 1 1 1 1 h -1 v 1 1 h -1 v 1 h -1 -1 v 1 H 19 18 17 16 15 14 V 16 H 13 12 V 15 H 11 V 14 13 H 10 V 12 11 10 9 8 7 h 1 V 6 5 h 1 V 4 h 1 1 z m -3,16 h 1 1 v 1 h 1 1 1 1 1 1 1 1 v -1 h 1 1 v 1 h 1 v 1 h 1 v 1 1 h 1 v 1 1 h 1 v 1 1 1 h -1 v 1 H 8 V 28 H 7 v -1 -1 -1 h 1 v -1 -1 h 1 v -1 -1 h 1 v -1 h 1 z" />
    <path
       style="display:inline;fill:#f3f3fc;fill-opacity:1;stroke-width:4;stroke-linecap:square;paint-order:stroke fill markers"
       d="m 13,1 h 6 l 6,6 v 6 l -2,4 5,11 -2,2 H 6 L 4,28 9,17 7,13 V 7 Z"
       id="path1"
       sodipodi:nodetypes="ccccccccccccc" />
    <path
       id="rect1-37-0"
       style="fill:#000009;stroke-width:4;stroke-linecap:square;paint-order:stroke fill markers"
       d="M -12 0 L -12 -1 L -11 -1 L -10 -1 L -10 -2 L -9 -2 L -9 -3 L -8 -3 L -8 -4 L -7 -4 L -7 -5 L -7 -6 L -6 -6 L -6 -7 L -6 -8 L -6 -9 L -6 -10 L -6 -11 L -6 -12 L -6 -13 L -6 -14 L -7 -14 L -7 -15 L -7 -16 L -8 -16 L -8 -17 L -7 -17 L -7 -18 L -6 -18 L -6 -19 L -5 -19 L -5 -20 L -5 -21 L -4 -21 L -4 -22 L -4 -23 L -4 -24 L -3 -24 L -3 -25 L -3 -26 L -3 -27 L -3 -28 L -3 -29 L -3 -30 L -4 -30 L -4 -31 L -6 -31 L -6 -32 L -26 -32 L -26 -31 L -28 -31 L -28 -30 L -29 -30 L -29 -29 L -29 -28 L -29 -27 L -29 -26 L -29 -25 L -29 -24 L -28 -24 L -28 -23 L -28 -22 L -28 -21 L -27 -21 L -27 -20 L -27 -19 L -26 -19 L -26 -18 L -25 -18 L -25 -17 L -24 -17 L -24 -16 L -25 -16 L -25 -15 L -25 -14 L -26 -14 L -26 -13 L -26 -12 L -26 -11 L -26 -10 L -26 -9 L -26 -8 L -26 -7 L -26 -6 L -25 -6 L -25 -5 L -25 -4 L -24 -4 L -24 -3 L -23 -3 L -23 -2 L -22 -2 L -22 -1 L -21 -1 L -20 -1 L -20 0 L -19 0 L -18 0 L -17 0 L -16 0 L -15 0 L -14 0 L -13 0 L -12 0 z M -13 -3 L -14 -3 L -15 -3 L -16 -3 L -17 -3 L -18 -3 L -19 -3 L -19 -4 L -20 -4 L -21 -4 L -21 -5 L -22 -5 L -22 -6 L -22 -7 L -23 -7 L -23 -8 L -23 -9 L -23 -10 L -23 -11 L -23 -12 L -23 -13 L -22 -13 L -22 -14 L -22 -15 L -21 -15 L -21 -16 L -20 -16 L -19 -16 L -19 -17 L -18 -17 L -17 -17 L -16 -17 L -15 -17 L -14 -17 L -13 -17 L -13 -16 L -12 -16 L -11 -16 L -11 -15 L -10 -15 L -10 -14 L -10 -13 L -9 -13 L -9 -12 L -9 -11 L -9 -10 L -9 -9 L -9 -8 L -9 -7 L -10 -7 L -10 -6 L -10 -5 L -11 -5 L -11 -4 L -12 -4 L -13 -4 L -13 -3 z M -10 -19 L -11 -19 L -12 -19 L -12 -20 L -13 -20 L -14 -20 L -15 -20 L -16 -20 L -17 -20 L -18 -20 L -19 -20 L -20 -20 L -20 -19 L -21 -19 L -22 -19 L -22 -20 L -23 -20 L -23 -21 L -24 -21 L -24 -22 L -24 -23 L -25 -23 L -25 -24 L -25 -25 L -26 -25 L -26 -26 L -26 -27 L -26 -28 L -25 -28 L -25 -29 L -7 -29 L -7 -28 L -6 -28 L -6 -27 L -6 -26 L -6 -25 L -7 -25 L -7 -24 L -7 -23 L -8 -23 L -8 -22 L -8 -21 L -9 -21 L -9 -20 L -10 -20 L -10 -19 z "
       transform="scale(-1)" />
  </g>
</svg>
