<?xml version="1.0" encoding="UTF-8" standalone="no"?>
<!-- Created with Inkscape (http://www.inkscape.org/) -->

<svg
   width="32"
   height="32"
   viewBox="0 0 32 32.000002"
   version="1.1"
   id="svg1"
   inkscape:version="1.4 (86a8ad7, 2024-10-11)"
   sodipodi:docname="play.svg"
   xmlns:inkscape="http://www.inkscape.org/namespaces/inkscape"
   xmlns:sodipodi="http://sodipodi.sourceforge.net/DTD/sodipodi-0.dtd"
   xmlns="http://www.w3.org/2000/svg"
   xmlns:svg="http://www.w3.org/2000/svg">
  <sodipodi:namedview
     id="namedview1"
     pagecolor="#ffffff"
     bordercolor="#000000"
     borderopacity="0.25"
     inkscape:showpageshadow="2"
     inkscape:pageopacity="0.0"
     inkscape:pagecheckerboard="0"
     inkscape:deskcolor="#d1d1d1"
     inkscape:document-units="px"
     inkscape:zoom="8"
     inkscape:cx="11.3125"
     inkscape:cy="25.1875"
     inkscape:window-width="1920"
     inkscape:window-height="1009"
     inkscape:window-x="-8"
     inkscape:window-y="-8"
     inkscape:window-maximized="1"
     inkscape:current-layer="layer1" />
  <defs
     id="defs1" />
  <g
     inkscape:label="Layer 1"
     inkscape:groupmode="layer"
     id="layer1">
    <path
       id="rect1-4-9"
       style="fill:#7e7e87;fill-opacity:1;stroke-width:2.50001;stroke-linecap:round"
       d="M 2,0 V 1 H 1 v 30 h 1 v 1 h 3 1 v -1 h 2 v -1 h 2 v -1 h 2 v -1 h 2 v -1 h 2 v -1 h 2 v -1 h 2 v -1 h 2 v -1 h 2 v -1 h 2 v -1 h 2 v -1 h 2 v -1 h 1 v -1 h 1 V 14 H 31 V 13 H 30 V 12 H 28 V 11 H 26 V 10 H 24 V 9 H 22 V 8 H 20 V 7 H 18 V 6 H 16 V 5 H 14 V 4 H 12 V 3 H 10 V 2 H 8 V 1 H 6 V 0 H 5 Z m 3,4 h 2 v 1 h 2 v 1 h 2 v 1 h 2 v 1 h 2 v 1 h 2 v 1 h 2 v 1 h 2 v 1 h 2 v 1 h 2 v 1 h 2 v 1 h 1 v 1 1 h -1 v 1 h -2 v 1 h -2 v 1 h -2 v 1 h -2 v 1 h -2 v 1 h -2 v 1 h -2 v 1 h -2 v 1 H 9 v 1 H 7 v 1 H 5 V 27 H 4 V 5 h 1 z" />
    <path
       style="fill:#f3f3fc;fill-opacity:1;stroke-width:2.5;stroke-linecap:round"
       d="M 30,16 2,31 V 1 Z"
       id="path3"
       sodipodi:nodetypes="cccc" />
    <path
       id="rect1-4"
       style="fill:#000009;fill-opacity:1;stroke-width:2.50001;stroke-linecap:round"
       d="M 1 0 L 1 1 L 0 1 L 0 31 L 1 31 L 1 32 L 4 32 L 5 32 L 5 31 L 7 31 L 7 30 L 9 30 L 9 29 L 11 29 L 11 28 L 13 28 L 13 27 L 15 27 L 15 26 L 17 26 L 17 25 L 19 25 L 19 24 L 21 24 L 21 23 L 23 23 L 23 22 L 25 22 L 25 21 L 27 21 L 27 20 L 29 20 L 29 19 L 30 19 L 30 18 L 31 18 L 31 14 L 30 14 L 30 13 L 29 13 L 29 12 L 27 12 L 27 11 L 25 11 L 25 10 L 23 10 L 23 9 L 21 9 L 21 8 L 19 8 L 19 7 L 17 7 L 17 6 L 15 6 L 15 5 L 13 5 L 13 4 L 11 4 L 11 3 L 9 3 L 9 2 L 7 2 L 7 1 L 5 1 L 5 0 L 4 0 L 1 0 z M 4 4 L 6 4 L 6 5 L 8 5 L 8 6 L 10 6 L 10 7 L 12 7 L 12 8 L 14 8 L 14 9 L 16 9 L 16 10 L 18 10 L 18 11 L 20 11 L 20 12 L 22 12 L 22 13 L 24 13 L 24 14 L 26 14 L 26 15 L 27 15 L 27 16 L 27 17 L 26 17 L 26 18 L 24 18 L 24 19 L 22 19 L 22 20 L 20 20 L 20 21 L 18 21 L 18 22 L 16 22 L 16 23 L 14 23 L 14 24 L 12 24 L 12 25 L 10 25 L 10 26 L 8 26 L 8 27 L 6 27 L 6 28 L 4 28 L 4 27 L 3 27 L 3 5 L 4 5 L 4 4 z " />
  </g>
</svg>
