<?xml version="1.0" encoding="UTF-8" standalone="no"?>
<!-- Created with Inkscape (http://www.inkscape.org/) -->

<svg
   width="208"
   height="32"
   viewBox="0 0 208 32"
   version="1.1"
   id="svg1"
   inkscape:export-filename="playnow.svg"
   inkscape:export-xdpi="96"
   inkscape:export-ydpi="96"
   xmlns:inkscape="http://www.inkscape.org/namespaces/inkscape"
   xmlns:sodipodi="http://sodipodi.sourceforge.net/DTD/sodipodi-0.dtd"
   xmlns="http://www.w3.org/2000/svg"
   xmlns:svg="http://www.w3.org/2000/svg">
  <sodipodi:namedview
     id="namedview1"
     pagecolor="#ffffff"
     bordercolor="#000000"
     borderopacity="0.25"
     inkscape:showpageshadow="2"
     inkscape:pageopacity="0.0"
     inkscape:pagecheckerboard="0"
     inkscape:deskcolor="#d1d1d1"
     inkscape:document-units="px">
    <inkscape:page
       x="0"
       y="0"
       width="208"
       height="32"
       id="page2"
       margin="0"
       bleed="0" />
  </sodipodi:namedview>
  <defs
     id="defs1" />
  <g
     inkscape:label="Layer 1"
     inkscape:groupmode="layer"
     id="layer1">
    <g
       id="g6"
       transform="translate(121.664,-27.564971)">
      <path
         id="rect1-4-9"
         style="fill:#7e7e87;fill-opacity:1;stroke-width:2.50001;stroke-linecap:round"
         d="m -119.664,27.564971 v 1 h -1 v 30 h 1 v 1 h 3 1 v -1 h 2 v -1 h 2 v -1 h 2 v -1 h 2 v -1 h 2 v -1 h 2 v -1 h 2 v -1 h 2.000004 v -1 h 2 v -1 h 2 v -1 h 2 v -1 h 2 v -1 h 1 v -1 h 1 v -4 h -1 v -1 h -1 v -1 h -2 v -1 h -2 v -1 h -2 v -1 h -2 v -1 H -101.664 v -1 h -2 v -1 h -2 v -1 h -2 v -1 h -2 v -1 h -2 v -1 h -2 v -1 h -2 v -1 h -1 z m 3,4 h 2 v 1 h 2 v 1 h 2 v 1 h 2 v 1 h 2 v 1 h 2 v 1 h 2 v 1 h 2 v 1 h 2.000004 v 1 h 2 v 1 h 2 v 1 h 1 v 1 1 h -1 v 1 h -2 v 1 h -2 v 1 H -100.664 v 1 h -2 v 1 h -2 v 1 h -2 v 1 h -2 v 1 h -2 v 1 h -2 v 1 h -2 v 1 h -2 v -1 h -1 v -22 h 1 z" />
      <path
         style="fill:#f3f3fc;fill-opacity:1;stroke-width:2.5;stroke-linecap:round"
         d="m -91.663996,43.564971 -28.000004,15 v -30 z"
         id="path3"
         sodipodi:nodetypes="cccc" />
      <path
         id="rect1-4"
         style="fill:#000009;fill-opacity:1;stroke-width:2.50001;stroke-linecap:round"
         d="m -120.664,27.564971 v 1 h -1 v 30 h 1 v 1 h 3 1 v -1 h 2 v -1 h 2 v -1 h 2 v -1 h 2 v -1 h 2 v -1 h 2 v -1 h 2 v -1 h 2 v -1 h 2.000004 v -1 h 2 v -1 h 2 v -1 h 2 v -1 h 1 v -1 h 1 v -4 h -1 v -1 h -1 v -1 h -2 v -1 h -2 v -1 h -2 v -1 H -100.664 v -1 h -2 v -1 h -2 v -1 h -2 v -1 h -2 v -1 h -2 v -1 h -2 v -1 h -2 v -1 h -2 v -1 h -1 z m 3,4 h 2 v 1 h 2 v 1 h 2 v 1 h 2 v 1 h 2 v 1 h 2 v 1 h 2 v 1 h 2 v 1 h 2.000004 v 1 h 2 v 1 h 2 v 1 h 1 v 1 1 h -1 v 1 h -2 v 1 h -2 v 1 H -101.664 v 1 h -2 v 1 h -2 v 1 h -2 v 1 h -2 v 1 h -2 v 1 h -2 v 1 h -2 v 1 h -2 v -1 h -1 v -22 h 1 z" />
    </g>
    <g
       id="g16">
      <g
         id="g17"
         transform="translate(0,2.5)">
        <path
           id="path16-1"
           style="-inkscape-font-specification:'Jersey 15, Normal';fill:#7e7e87;fill-opacity:1;stroke-linecap:square;paint-order:stroke fill markers"
           d="M 49,-0.3515625 V 27.351562 h 8.740234 v -7.900391 h 7.902344 V 17.86914 h 1.580078 v -1.580078 h 0.740235 v 11.0625 h 24.542968 v -6.320313 h 2.322266 v 6.320313 h 8.740235 V 13.128906 h 0.74024 v 1.580078 h 1.58008 v 1.580078 h 1.58007 v 1.580078 h 1.58008 v 9.482422 h 8.74219 V 17.86914 h 1.58008 v -1.580078 h 1.58008 v -1.580079 h 1.58007 v -1.580077 h 1.58008 V -0.3515625 h -8.74023 v 7.90039 h -1.58008 v 1.580078 h -0.74219 v -1.580078 h -1.58008 v -7.90039 h -8.74023 v 6.320312 h -0.74023 v -1.580078 h -1.58008 v -1.580078 h -1.580084 v -1.580078 h -1.58008 v -1.580078 h -7.162108 v 1.580078 h -1.580079 v 1.580078 h -1.580078 v 1.580078 h -1.580078 v 1.580078 H 83.765625 V 18.611328 h -7.0625 V -0.3515625 h -8.740234 v 3.160156 h -0.740235 v -1.580078 h -1.580078 v -1.580078 z m 83.75391,0 V 27.351562 h 8.74023 V 21.03125 h 0.74024 v 3.160156 h 1.58008 v 3.160157 h 10.32226 v -3.160157 h 0.74024 v 1.580078 h 1.58008 v 1.580079 h 13.48242 v -1.580079 h 1.58008 v -1.580078 h 1.58007 V 21.03125 h 0.74024 v 1.580078 h 1.58007 v 1.580078 H 177 v 1.580078 h 1.58008 v 1.580079 h 5.58008 v -1.580079 h 1.58007 v -1.580078 h 0.74219 v 1.580078 h 1.58008 v 1.580079 h 5.58008 v -1.580079 h 1.58008 v -1.580078 h 1.58007 v -1.580078 h 1.58008 V 21.03125 h 0.74024 v 6.320313 h 8.74218 v -8.740235 h -1.58007 v -2.322266 h 1.58007 V -0.3515625 H 191.22266 V 15.451172 h -0.74024 V -0.3515625 h -8.74219 V 15.451172 H 181 V -0.3515625 h -8.74023 v 3.160156 h -0.74023 v -1.580078 h -1.58008 v -1.580078 h -13.48242 v 1.580078 h -1.58008 v 1.580078 h -0.74024 v -3.160156 h -8.74218 v 6.320312 h -0.74024 v -3.160156 h -1.58008 v -3.160156 z m -75.013676,8.740234 h 0.742188 v 0.740234 0.839844 0.7402345 h -0.742188 z m 104.296876,1.580078 h 2.32032 V 17.03125 h -2.32032 z M 92.505859,11.548828 h 2.322266 v 0.740235 h -2.322266 z m 107.457031,4.740234 h 0.74023 v 2.322265 h -0.74023 z" />
        <path
           d="M 47,-0.3515625 V 27.351562 h 8.740234 v -7.900391 h 7.902344 V 17.86914 h 1.580078 v -1.580078 h 0.740235 v 11.0625 H 90.505859 V 21.03125 h 2.322266 v 6.320312 h 8.740235 V 13.128906 h 0.74023 v 1.580077 h 1.58008 v 1.580079 h 1.58008 v 1.580078 h 1.58008 v 9.482422 h 8.74219 V 17.86914 h 1.58009 v -1.580078 h 1.58007 v -1.580078 h 1.58008 v -1.580077 h 1.58007 V -0.3515625 h -8.74024 V 7.548828 h -1.58007 v 1.5800785 h -0.74219 V 7.548828 h -1.58008 v -7.9003905 h -8.74023 V 5.96875 H 99.988281 V 4.3886715 h -1.580078 v -1.580078 h -1.580078 v -1.580078 h -1.580078 v -1.580078 h -7.162109 v 1.580078 h -1.580079 v 1.580078 h -1.580078 v 1.580078 H 83.345703 V 5.96875 h -1.580078 v 12.642578 h -7.0625 V -0.3515625 h -8.740234 v 3.160156 h -0.740235 v -1.580078 h -1.580078 v -1.580078 z m 83.75392,0 V 27.351562 h 8.74023 V 21.03125 h 0.74024 v 3.160153 h 1.58008 v 3.16016 h 10.32226 v -3.16016 h 0.74023 v 1.580079 h 1.58008 v 1.580081 h 13.48242 v -1.58008 h 1.58008 v -1.58008 h 1.58008 V 21.03125 h 0.74023 v 1.580084 h 1.58008 v 1.580069 h 1.58009 v 1.580079 h 1.58008 v 1.58008 h 5.58007 v -1.58008 h 1.58008 v -1.580079 h 0.74219 v 1.580079 h 1.58008 v 1.58008 h 5.58008 v -1.58008 h 1.58007 v -1.580079 h 1.58008 v -1.58007 h 1.58008 V 21.03125 h 0.74023 v 6.320312 h 8.74219 v -8.740234 h -1.58008 v -2.322266 h 1.58008 V -0.3515625 H 189.22266 V 15.451171 h -0.74023 V -0.3515625 h -8.74218 V 15.451171 h -0.74023 V -0.3515625 h -8.74024 v 3.160156 h -0.74023 v -1.580078 h -1.58008 v -1.580078 h -13.48242 v 1.580078 h -1.58008 v 1.580078 h -0.74023 v -3.160156 h -8.7422 V 5.96875 h -0.74023 V 2.8085935 h -1.58008 v -3.160156 z m -81.75392,2 h 12.642578 v 1.580078 h 1.580078 v 1.580078 h 1.580079 v 9.4804695 h -1.580079 v 1.580078 h -1.580078 v 1.58203 h -7.902344 v 7.900391 H 49 Z m 18.962891,0 h 4.740234 V 20.611328 h 7.902344 v 4.740234 H 67.962891 Z m 22.123047,0 h 3.162109 v 1.580078 h 1.580078 v 1.580078 h 1.580078 V 6.388672 h 1.580078 V 7.96875 h 1.580078 V 25.351562 H 94.828125 V 19.03125 h -6.322266 v 6.320312 H 83.765625 V 7.96875 h 1.580078 V 6.388672 h 1.580078 V 4.8085935 h 1.580078 v -1.580078 h 1.580079 z m 12.642582,0 h 4.74023 v 7.900391 h 1.58008 v 1.5800775 h 1.58203 v 1.580079 h 1.58008 v -1.580079 h 1.58008 V 9.5488285 h 1.58008 v -7.900391 h 4.74023 v 9.4804685 h -1.58007 v 1.580079 h -1.58008 v 1.580078 h -1.58008 v 1.580078 h -1.58008 v 9.482421 h -4.74219 v -9.482421 h -1.58008 v -1.580078 h -1.58008 v -1.580078 h -1.58008 v -1.580079 h -1.58007 z m 30.0254,0 h 6.32031 v 3.160156 h 1.58008 V 7.96875 h 1.58008 v 3.160156 h 1.58008 v 3.160157 h 1.58006 V 1.6484375 h 4.7422 V 25.351562 h -6.32227 v -3.16016 h -1.58008 V 19.031249 H 140.6543 V 15.86914 h -1.58007 v -3.160156 h -1.58008 v 12.642578 h -4.74023 z m 23.70313,0 h 9.48242 v 1.580078 h 1.58008 v 1.580078 h 1.58008 V 22.191403 h -1.58008 v 1.580081 h -1.58008 v 1.580079 h -9.48242 v -1.580079 h -1.58008 v -1.580081 h -1.58009 V 4.8085935 h 1.58009 v -1.580078 h 1.58008 z m 15.80273,0 h 4.74024 V 17.451171 h 1.58008 v 1.580079 h 1.58007 v -1.580079 h 1.58008 V 1.6484375 h 4.74219 V 17.451171 h 1.58008 v 1.580079 h 1.58008 v -1.580079 h 1.58007 V 1.6484375 h 4.74024 V 19.03125 h -1.58008 v 1.580078 h -1.58008 v 1.580075 h -1.58008 v 1.580079 h -1.58007 v 1.580081 h -1.58008 v -1.58008 h -1.58009 v -1.58008 h -1.58008 v -1.580074 h -1.58203 v 1.580074 h -1.58008 v 1.58008 h -1.58008 v 1.58008 h -1.58007 v -1.58008 h -1.58008 v -1.58008 h -1.58008 v -1.580074 h -1.58008 V 19.03125 h -1.58008 z m 26.86328,0 h 4.74219 V 14.289063 h -1.58009 v 3.162108 h -1.58203 v -3.162108 h -1.58008 z M 53.740234,6.388672 v 6.320313 h 4.742188 V 11.128906 H 60.0625 V 7.96875 H 58.482422 V 6.388672 Z m 105.876966,0 V 7.96875 h -1.58008 v 11.0625 h 1.58008 v 1.580078 h 3.16015 V 19.03125 h 1.58008 V 7.96875 h -1.58008 V 6.388672 Z M 90.085938,7.96875 v 1.5800785 h -1.580079 v 4.7402345 h 6.322266 V 9.5488285 H 93.248047 V 7.96875 Z M 55.740234,8.388672 h 0.742188 v 0.7402345 0.839844 0.7402345 H 55.740234 Z M 160.03712,9.9687505 h 2.32031 V 17.03125 h -2.32031 z M 90.505859,11.548829 h 2.322266 v 0.740234 H 90.505859 Z M 197.9629,16.289062 h 0.74023 v 2.322266 h -0.74023 z m 1.16015,4.322266 h 4.74219 v 4.740234 h -4.74219 z"
           style="-inkscape-font-specification:'Jersey 15, Normal';fill:#000009;stroke-linecap:square;paint-order:stroke fill markers"
           id="path16"
           sodipodi:nodetypes="cccccccccccccccccccccccccccccccccccccccccccccccccccccccccccccccccccccccccccccccccccccccccccccccccccccccccccccccccccccccccccccccccccccccccccccccccccccccccccccccccccccccccccccccccccccccccccccccccccccccccccccccccccccccccccccccccccccccccccccccccccccccccccccccccccccccccccccccccccccccccccccccccccccccccccccccccccccccccccccccccccccccccccccccccccccccccccccccccccccccccccccccccccccccccccccccccccccccc" />
        <path
           d="M 49,1.6484375 V 25.351562 h 4.740234 v -7.900391 h 7.902344 v -1.58203 h 1.580078 v -1.580078 h 1.580079 V 4.8085935 h -1.580079 v -1.580078 h -1.580078 v -1.580078 z m 18.962891,0 V 25.351562 H 80.605469 V 20.611328 H 72.703125 V 1.6484375 Z m 22.123047,0 v 1.580078 h -1.580079 v 1.580078 H 86.925781 V 6.388672 H 85.345703 V 7.96875 h -1.580078 v 17.382812 h 4.740234 V 19.03125 h 6.322266 v 6.320312 h 4.740234 V 7.96875 H 97.988281 V 6.388672 H 96.408203 V 4.8085935 h -1.580078 v -1.580078 h -1.580078 v -1.580078 z m 12.642582,0 v 9.4804685 h 1.58007 v 1.580079 h 1.58008 v 1.580078 h 1.58008 v 1.580078 h 1.58008 v 9.482421 h 4.74219 v -9.482421 h 1.58008 v -1.580078 h 1.58008 v -1.580078 h 1.58008 v -1.580079 h 1.58007 V 1.6484375 h -4.74023 v 7.900391 h -1.58008 v 1.5800775 h -1.58008 v 1.580079 h -1.58008 v -1.580079 h -1.58203 V 9.5488285 h -1.58008 v -7.900391 z m 30.0254,0 V 25.351562 h 4.74023 V 12.708985 h 1.58008 v 3.160156 h 1.58007 v 3.162109 h 1.58008 v 3.160153 h 1.58008 v 3.16016 h 6.32227 V 1.6484375 h -4.7422 V 14.289063 h -1.58007 v -3.160157 h -1.58008 V 7.96875 H 140.6543 V 4.8085935 h -1.58007 v -3.160156 z m 23.70313,0 v 1.580078 h -1.58008 v 1.580078 h -1.58009 V 22.191403 h 1.58009 v 1.580081 h 1.58008 v 1.580079 h 9.48242 v -1.580079 h 1.58008 v -1.580081 h 1.58008 V 4.8085935 h -1.58008 v -1.580078 h -1.58008 v -1.580078 z m 15.80273,0 V 19.03125 h 1.58008 v 1.580078 h 1.58008 v 1.580075 h 1.58008 v 1.580079 h 1.58008 v 1.580081 h 1.58007 v -1.58008 h 1.58008 v -1.58008 h 1.58008 v -1.580074 h 1.58203 v 1.580074 h 1.58008 v 1.58008 h 1.58008 v 1.58008 h 1.58008 v -1.58008 h 1.58007 v -1.58008 h 1.58008 v -1.580074 h 1.58008 V 19.03125 h 1.58008 V 1.6484375 h -4.74024 V 17.451171 h -1.58007 v 1.580079 h -1.58008 v -1.580079 h -1.58009 V 1.6484375 h -4.74218 V 17.451171 h -1.58009 v 1.580079 h -1.58007 v -1.580079 h -1.58008 V 1.6484375 Z m 26.86328,0 V 14.289063 h 1.58008 v 3.162108 h 1.58203 v -3.162108 h 1.58008 V 1.6484375 Z M 53.740234,6.388672 h 4.742188 V 7.96875 H 60.0625 v 3.160156 h -1.580078 v 1.580079 h -4.742188 z m 105.876966,0 h 3.16015 V 7.96875 h 1.58008 v 11.0625 h -1.58008 v 1.580078 H 159.6172 V 19.03125 h -1.58008 V 7.96875 h 1.58008 z M 90.085938,7.96875 h 3.162109 v 1.5800785 h 1.580078 V 14.289063 H 88.505859 V 9.5488285 h 1.580079 z M 199.12305,20.611328 v 4.740234 h 4.74219 v -4.740234 z"
           style="-inkscape-font-specification:'Jersey 15, Normal';fill:#f3f3fc;stroke-linecap:square;paint-order:stroke fill markers"
           id="path15" />
      </g>
    </g>
  </g>
</svg>
