<?xml version="1.0" encoding="UTF-8" standalone="no"?>
<!-- Created with Inkscape (http://www.inkscape.org/) -->

<svg
   width="32"
   height="32"
   viewBox="0 0 32 32"
   version="1.1"
   id="svg1"
   sodipodi:docname="scrolltop.svg"
   inkscape:version="1.4 (86a8ad7, 2024-10-11)"
   xmlns:inkscape="http://www.inkscape.org/namespaces/inkscape"
   xmlns:sodipodi="http://sodipodi.sourceforge.net/DTD/sodipodi-0.dtd"
   xmlns="http://www.w3.org/2000/svg"
   xmlns:svg="http://www.w3.org/2000/svg">
  <sodipodi:namedview
     id="namedview1"
     pagecolor="#ffffff"
     bordercolor="#000000"
     borderopacity="0.25"
     inkscape:showpageshadow="2"
     inkscape:pageopacity="0.0"
     inkscape:pagecheckerboard="0"
     inkscape:deskcolor="#d1d1d1"
     inkscape:zoom="16"
     inkscape:cx="6.375"
     inkscape:cy="14.03125"
     inkscape:window-width="1920"
     inkscape:window-height="1009"
     inkscape:window-x="-8"
     inkscape:window-y="-8"
     inkscape:window-maximized="1"
     inkscape:current-layer="svg1" />
  <defs
     id="defs1" />
  <path
     id="rect1-0-8"
     style="fill:#7e7e87;fill-opacity:1;stroke:none;stroke-width:4;stroke-linecap:square;paint-order:stroke fill markers"
     d="M 15,0 V 1 H 14 V 2 H 13 V 3 H 12 V 4 H 11 V 5 H 10 V 6 H 9 V 7 H 8 V 8 H 7 V 9 H 6 v 1 H 5 v 1 H 4 v 1 H 3 v 1 H 2 v 1 H 1 v 3 h 1 v 1 h 1 v 1 h 1 v 1 h 1 v 1 h 1 v 1 H 5 v 1 H 4 v 1 H 3 v 3 h 1 v 1 h 1 v 1 h 1 v 1 h 1 v 1 h 1 v 1 h 2 v -1 h 1 v -1 h 1 v -1 h 1 v -1 h 1 v -1 h 1 v -1 h 1 v -1 h 1 v 1 h 1 v 1 h 1 v 1 h 1 v 1 h 1 v 1 h 1 v 1 h 1 v 1 h 2 v -1 h 1 v -1 h 1 v -1 h 1 v -1 h 1 v -1 h 1 v -3 h -1 v -1 h -1 v -1 h -1 v -1 h 1 v -1 h 1 v -1 h 1 v -1 h 1 v -1 h 1 V 14 H 31 V 13 H 30 V 12 H 29 V 11 H 28 V 10 H 27 V 9 H 26 V 8 H 25 V 7 H 24 V 6 H 23 V 5 H 22 V 4 H 21 V 3 H 20 V 2 H 19 V 1 H 18 V 0 Z m 1,3 h 1 v 1 h 1 v 1 h 1 v 1 h 1 v 1 h 1 v 1 h 1 v 1 h 1 v 1 h 1 v 1 h 1 v 1 h 1 v 1 h 1 v 1 h 1 v 3 h -1 v 1 h -2 v -1 h -1 v -1 h -1 v -1 h -1 v -1 h -1 v -1 h -1 v -1 h -1 v -1 h -1 v -1 h -3 v 1 h -1 v 1 h -1 v 1 h -1 v 1 h -1 v 1 h -1 v 1 H 9 v 1 H 8 v 1 H 6 V 17 H 5 v -3 h 1 v -1 h 1 v -1 h 1 v -1 h 1 v -1 h 1 V 9 h 1 V 8 h 1 V 7 h 1 V 6 h 1 V 5 h 1 V 4 h 1 z m 0,12 h 1 v 1 h 1 v 1 h 1 v 1 h 1 v 1 h 1 v 1 h 1 v 1 h 1 v 1 h 1 v 1 h 1 v 1 h 1 v 3 h -1 v 1 h -2 v -1 h -1 v -1 h -1 v -1 h -1 v -1 h -1 v -1 h -1 v -1 h -3 v 1 h -1 v 1 h -1 v 1 h -1 v 1 h -1 v 1 h -1 v 1 H 8 V 27 H 7 v -3 h 1 v -1 h 1 v -1 h 1 v -1 h 1 v -1 h 1 v -1 h 1 v -1 h 1 v -1 h 1 v -1 h 1 z" />
  <path
     style="fill:#f3f3fc;fill-opacity:1;stroke:none;stroke-width:4;stroke-linecap:square;paint-order:stroke fill markers"
     d="M 1,15.5 15.5,1 30,15.5 l -6,6 4,4 -5,4.5 -7.5,-7 -7.5,7 -5,-4.5 3.5,-4 z"
     id="path2"
     sodipodi:nodetypes="ccccccccccc" />
  <path
     id="rect1-0"
     style="fill:#000009;fill-opacity:1;stroke:none;stroke-width:4;stroke-linecap:square;paint-order:stroke fill markers"
     d="M 14 0 L 14 1 L 13 1 L 13 2 L 12 2 L 12 3 L 11 3 L 11 4 L 10 4 L 10 5 L 9 5 L 9 6 L 8 6 L 8 7 L 7 7 L 7 8 L 6 8 L 6 9 L 5 9 L 5 10 L 4 10 L 4 11 L 3 11 L 3 12 L 2 12 L 2 13 L 1 13 L 1 14 L 0 14 L 0 17 L 1 17 L 1 18 L 2 18 L 2 19 L 3 19 L 3 20 L 4 20 L 4 21 L 5 21 L 5 22 L 4 22 L 4 23 L 3 23 L 3 24 L 2 24 L 2 27 L 3 27 L 3 28 L 4 28 L 4 29 L 5 29 L 5 30 L 6 30 L 6 31 L 7 31 L 7 32 L 9 32 L 9 31 L 10 31 L 10 30 L 11 30 L 11 29 L 12 29 L 12 28 L 13 28 L 13 27 L 14 27 L 14 26 L 15 26 L 15 25 L 16 25 L 16 26 L 17 26 L 17 27 L 18 27 L 18 28 L 19 28 L 19 29 L 20 29 L 20 30 L 21 30 L 21 31 L 22 31 L 22 32 L 24 32 L 24 31 L 25 31 L 25 30 L 26 30 L 26 29 L 27 29 L 27 28 L 28 28 L 28 27 L 29 27 L 29 24 L 28 24 L 28 23 L 27 23 L 27 22 L 26 22 L 26 21 L 27 21 L 27 20 L 28 20 L 28 19 L 29 19 L 29 18 L 30 18 L 30 17 L 31 17 L 31 14 L 30 14 L 30 13 L 29 13 L 29 12 L 28 12 L 28 11 L 27 11 L 27 10 L 26 10 L 26 9 L 25 9 L 25 8 L 24 8 L 24 7 L 23 7 L 23 6 L 22 6 L 22 5 L 21 5 L 21 4 L 20 4 L 20 3 L 19 3 L 19 2 L 18 2 L 18 1 L 17 1 L 17 0 L 14 0 z M 15 3 L 16 3 L 16 4 L 17 4 L 17 5 L 18 5 L 18 6 L 19 6 L 19 7 L 20 7 L 20 8 L 21 8 L 21 9 L 22 9 L 22 10 L 23 10 L 23 11 L 24 11 L 24 12 L 25 12 L 25 13 L 26 13 L 26 14 L 27 14 L 27 17 L 26 17 L 26 18 L 24 18 L 24 17 L 23 17 L 23 16 L 22 16 L 22 15 L 21 15 L 21 14 L 20 14 L 20 13 L 19 13 L 19 12 L 18 12 L 18 11 L 17 11 L 17 10 L 14 10 L 14 11 L 13 11 L 13 12 L 12 12 L 12 13 L 11 13 L 11 14 L 10 14 L 10 15 L 9 15 L 9 16 L 8 16 L 8 17 L 7 17 L 7 18 L 5 18 L 5 17 L 4 17 L 4 14 L 5 14 L 5 13 L 6 13 L 6 12 L 7 12 L 7 11 L 8 11 L 8 10 L 9 10 L 9 9 L 10 9 L 10 8 L 11 8 L 11 7 L 12 7 L 12 6 L 13 6 L 13 5 L 14 5 L 14 4 L 15 4 L 15 3 z M 15 15 L 16 15 L 16 16 L 17 16 L 17 17 L 18 17 L 18 18 L 19 18 L 19 19 L 20 19 L 20 20 L 21 20 L 21 21 L 22 21 L 22 22 L 23 22 L 23 23 L 24 23 L 24 24 L 25 24 L 25 27 L 24 27 L 24 28 L 22 28 L 22 27 L 21 27 L 21 26 L 20 26 L 20 25 L 19 25 L 19 24 L 18 24 L 18 23 L 17 23 L 17 22 L 14 22 L 14 23 L 13 23 L 13 24 L 12 24 L 12 25 L 11 25 L 11 26 L 10 26 L 10 27 L 9 27 L 9 28 L 7 28 L 7 27 L 6 27 L 6 24 L 7 24 L 7 23 L 8 23 L 8 22 L 9 22 L 9 21 L 10 21 L 10 20 L 11 20 L 11 19 L 12 19 L 12 18 L 13 18 L 13 17 L 14 17 L 14 16 L 15 16 L 15 15 z " />
</svg>
