<?xml version="1.0" encoding="UTF-8" standalone="no"?>
<!-- Created with Inkscape (http://www.inkscape.org/) -->

<svg
   width="32"
   height="32"
   viewBox="0 0 32 32"
   version="1.1"
   id="svg1"
   xmlns="http://www.w3.org/2000/svg"
   xmlns:svg="http://www.w3.org/2000/svg">
  <defs
     id="defs1" />
  <g
     id="layer1">
    <path
       id="rect1-082-4-6-8"
       style="fill:#7e7e87;fill-opacity:1;stroke-width:3.99999;stroke-linecap:square;paint-order:stroke fill markers"
       d="M 4,0 V 1 H 3 V 2 H 2 V 3 H 1 v 6 h 1 v 1 h 1 v 1 18 1 1 h 1 v 1 h 6 v -1 h 1 v -1 -1 -9 h 1 v 1 h 3 1 v 1 h 1 1 1 1 1 1 1 v -1 h 1 1 1 v -1 h 1 1 1 1 1 v -1 h 1 V 5 H 31 V 4 H 30 29 V 3 H 28 27 26 25 24 V 4 H 23 22 V 5 H 21 20 19 18 17 V 4 H 14 V 3 H 13 12 V 2 H 11 V 1 H 10 V 0 Z m 1,3 h 4 v 1 h 1 V 8 H 9 V 9 H 5 V 8 H 4 V 4 h 1 z m 8,3 h 1 v 1 h 3 v 1 h 1 1 1 1 1 V 7 h 1 1 V 6 h 1 1 1 1 v 1 h 1 v 10 h -1 -1 -1 v 1 h -1 -1 -1 v 1 h -1 -1 -1 -1 -1 -1 -1 v -1 h -1 -3 v -1 h -1 v -6 -1 h 1 V 9 h 1 z M 6,12 H 8 V 29 H 6 Z" />
    <path
       style="fill:#f3f3fc;fill-opacity:1;stroke-width:4;stroke-linecap:square;paint-order:stroke fill markers"
       d="m 3,30 2e-7,-20 L 1,8 V 4 L 4,1 h 4 l 3,3 7.5,2 7,-2 4.5,2 V 18 L 18.5,21 9,18 v 12 z"
       id="path1" />
    <path
       id="rect1-082-4-6"
       style="fill:#000009;fill-opacity:1;stroke-width:3.99999;stroke-linecap:square;paint-order:stroke fill markers"
       d="M 3,0 V 1 H 2 V 2 H 1 V 3 H 0 v 6 h 1 v 1 h 1 v 1 18 1 1 h 1 v 1 h 6 v -1 h 1 v -1 -1 -9 h 1 v 1 h 3 1 v 1 h 1 1 1 1 1 1 1 v -1 h 1 1 1 v -1 h 1 1 1 1 1 v -1 h 1 V 5 H 30 V 4 H 29 28 V 3 H 27 26 25 24 23 V 4 H 22 21 V 5 H 20 19 18 17 16 V 4 H 13 V 3 H 12 11 V 2 H 10 V 1 H 9 V 0 Z M 4,3 H 8 V 4 H 9 V 8 H 8 V 9 H 4 V 8 H 3 V 4 h 1 z m 8,3 h 1 v 1 h 3 v 1 h 1 1 1 1 1 V 7 h 1 1 V 6 h 1 1 1 1 v 1 h 1 v 10 h -1 -1 -1 v 1 h -1 -1 -1 v 1 h -1 -1 -1 -1 -1 -1 -1 v -1 h -1 -3 v -1 h -1 v -6 -1 h 1 V 9 h 1 z M 5,12 H 7 V 29 H 5 Z" />
  </g>
</svg>
